<svg xmlns="http://www.w3.org/2000/svg" width="192.302" height="34.977" viewBox="0 0 192.302 34.977">
  <g id="Group_1258" data-name="Group 1258" transform="translate(-173.93 -54.54)">
    <path id="Path_1712" data-name="Path 1712" d="M2.072,0h12.8V-3.836H6.8V-19.88H2.072ZM23.044.336c4.144,0,7.28-2.548,7.28-7.364s-3.136-7.308-7.28-7.308c-4.116,0-7.252,2.492-7.252,7.308S18.928.336,23.044.336Zm0-3.108c-1.736,0-2.772-1.4-2.772-4.256,0-2.884,1.036-4.2,2.772-4.2,1.764,0,2.8,1.316,2.8,4.2C25.844-4.172,24.808-2.772,23.044-2.772ZM35.2,0h4.9L45-14h-4.62L38.108-5.74a17.02,17.02,0,0,0-.42,1.988h-.056a17.02,17.02,0,0,0-.42-1.988L34.944-14h-4.62ZM58.968-7.336c0-4.452-2.464-7-6.86-7C47.74-14.336,45-11.452,45-6.86c0,4.536,2.8,7.2,7.42,7.2a6.841,6.841,0,0,0,6.412-3.668l-3.3-1.512a3.245,3.245,0,0,1-3.052,1.96,3.014,3.014,0,0,1-3.22-3.108h9.716Zm-4.34-1.176H49.252c.056-1.988,1.036-3.164,2.772-3.164,1.68,0,2.6,1.064,2.6,3.052ZM68.068,0h12.8V-3.836H72.8V-19.88H68.068ZM89.04.336c4.144,0,7.28-2.548,7.28-7.364s-3.136-7.308-7.28-7.308c-4.116,0-7.252,2.492-7.252,7.308S84.924.336,89.04.336Zm0-3.108c-1.736,0-2.772-1.4-2.772-4.256,0-2.884,1.036-4.2,2.772-4.2,1.764,0,2.8,1.316,2.8,4.2C91.84-4.172,90.8-2.772,89.04-2.772ZM105.056.336c3.584,0,6.188-1.932,6.692-5.012l-4.2-.924c-.252,1.68-1.12,2.6-2.52,2.6-1.764,0-2.772-1.512-2.772-4.144,0-2.436,1.036-3.892,2.744-3.892,1.372,0,2.268.868,2.52,2.52l4.228-.868c-.532-3.164-2.968-4.956-6.636-4.956-4.592,0-7.42,2.772-7.42,7.336C97.692-2.548,100.632.336,105.056.336Zm12.572,0A4.9,4.9,0,0,0,122.3-2.212,13.435,13.435,0,0,0,122.528,0H126.9a15.229,15.229,0,0,1-.392-3.892V-8.54c0-4.032-2.016-5.8-6.524-5.8-3.976,0-6.5,1.848-6.72,4.956h4.452a2.016,2.016,0,0,1,2.24-2.072c1.4,0,2.072.7,2.072,2.3v.476l-3.388.476a9.863,9.863,0,0,0-4.4,1.372,3.491,3.491,0,0,0-1.428,3.024C112.812-1.316,114.744.336,117.628.336Zm1.68-2.856c-1.176,0-1.96-.644-1.96-1.624,0-1.036.756-1.624,2.408-1.932l2.408-.392v1.12A2.7,2.7,0,0,1,119.308-2.52ZM134.232-20.3h-4.508V0h4.508Z" transform="translate(232 77)" fill="#fc815b"/>
    <g id="Group_1248" data-name="Group 1248" transform="translate(54.049 -11)">
      <g id="Group_1177" data-name="Group 1177" transform="translate(115.906 58)">
        <g id="Group_1169" data-name="Group 1169">
          <path id="Path_1713" data-name="Path 1713" d="M1.924,0H13.806V-3.562H6.318v-14.9H1.924ZM15.938,0H27.82V-3.562H20.332v-14.9H15.938Z" transform="translate(13.044 26)" fill="#fc815b"/>
          <path id="Path_1621" data-name="Path 1621" d="M-19105.094-8103.91s17.684,20.55,41.119,0" transform="translate(19111.889 8135.242)" fill="none" stroke="#fc815b" stroke-linecap="round" stroke-width="4"/>
        </g>
      </g>
    </g>
  </g>
</svg>
